<svg xmlns="http://www.w3.org/2000/svg" xmlns:xlink="http://www.w3.org/1999/xlink" width="300" zoomAndPan="magnify" viewBox="0 0 224.87999 89.999999" height="120" preserveAspectRatio="xMidYMid meet" version="1.0"><defs><g/><clipPath id="d86a9057ce"><path d="M 115.660156 17.769531 L 177.878906 17.769531 L 177.878906 79.984375 L 115.660156 79.984375 Z M 115.660156 17.769531 " clip-rule="nonzero"/></clipPath><clipPath id="db2dff76b8"><path d="M 182.816406 10 L 193 10 L 193 19 L 182.816406 19 Z M 182.816406 10 " clip-rule="nonzero"/></clipPath><clipPath id="b12a955de0"><path d="M 198 9.019531 L 207 9.019531 L 207 19 L 198 19 Z M 198 9.019531 " clip-rule="nonzero"/></clipPath><clipPath id="a6070d01e5"><path d="M 183 20 L 188 20 L 188 21.761719 L 183 21.761719 Z M 183 20 " clip-rule="nonzero"/></clipPath></defs><g fill="#000000" fill-opacity="1"><g transform="translate(14.50593, 72.835107)"><g><path d="M 5.40625 0 C 4.957031 0 4.734375 -0.191406 4.734375 -0.578125 L 4.734375 -38.671875 C 4.734375 -42.554688 5.816406 -45.691406 7.984375 -48.078125 C 10.148438 -50.460938 13.007812 -51.65625 16.5625 -51.65625 C 20.0625 -51.65625 22.894531 -50.460938 25.0625 -48.078125 C 27.226562 -45.691406 28.3125 -42.554688 28.3125 -38.671875 L 28.3125 -0.515625 C 28.3125 -0.171875 28.113281 0 27.71875 0 L 25.53125 0 C 25.144531 0 24.953125 -0.191406 24.953125 -0.578125 L 24.953125 -19.109375 L 8.171875 -19.109375 L 8.171875 -0.578125 C 8.171875 -0.191406 7.976562 0 7.59375 0 Z M 24.953125 -38.671875 C 24.953125 -41.734375 24.207031 -44.140625 22.71875 -45.890625 C 21.238281 -47.640625 19.1875 -48.515625 16.5625 -48.515625 C 13.9375 -48.515625 11.878906 -47.640625 10.390625 -45.890625 C 8.910156 -44.140625 8.171875 -41.734375 8.171875 -38.671875 L 8.171875 -22.25 L 24.953125 -22.25 Z M 24.953125 -38.671875 "/></g></g></g><g fill="#000000" fill-opacity="1"><g transform="translate(47.64059, 72.835145)"><g><path d="M 5.40625 0 C 4.957031 0 4.734375 -0.191406 4.734375 -0.578125 L 4.734375 -38.671875 C 4.734375 -42.554688 5.816406 -45.691406 7.984375 -48.078125 C 10.148438 -50.460938 13.007812 -51.65625 16.5625 -51.65625 C 20.0625 -51.65625 22.894531 -50.460938 25.0625 -48.078125 C 27.226562 -45.691406 28.3125 -42.554688 28.3125 -38.671875 L 28.3125 -0.515625 C 28.3125 -0.171875 28.113281 0 27.71875 0 L 25.53125 0 C 25.144531 0 24.953125 -0.191406 24.953125 -0.578125 L 24.953125 -19.109375 L 8.171875 -19.109375 L 8.171875 -0.578125 C 8.171875 -0.191406 7.976562 0 7.59375 0 Z M 24.953125 -38.671875 C 24.953125 -41.734375 24.207031 -44.140625 22.71875 -45.890625 C 21.238281 -47.640625 19.1875 -48.515625 16.5625 -48.515625 C 13.9375 -48.515625 11.878906 -47.640625 10.390625 -45.890625 C 8.910156 -44.140625 8.171875 -41.734375 8.171875 -38.671875 L 8.171875 -22.25 L 24.953125 -22.25 Z M 24.953125 -38.671875 "/></g></g></g><g fill="#000000" fill-opacity="1"><g transform="translate(80.775248, 74.134449)"><g><path d="M 7.078125 0.140625 C 6.585938 0.140625 6.1875 -0.015625 5.875 -0.328125 C 5.5625 -0.640625 5.40625 -1.039062 5.40625 -1.53125 L 5.40625 -49.53125 C 5.40625 -50.070312 5.5625 -50.488281 5.875 -50.78125 C 6.1875 -51.070312 6.585938 -51.21875 7.078125 -51.21875 L 16.859375 -51.21875 C 20.359375 -51.21875 23.1875 -50.0625 25.34375 -47.75 C 27.507812 -45.4375 28.59375 -42.53125 28.59375 -39.03125 L 28.59375 -12.328125 C 28.59375 -9.992188 28.101562 -7.878906 27.125 -5.984375 C 26.15625 -4.085938 24.769531 -2.59375 22.96875 -1.5 C 21.175781 -0.40625 19.140625 0.140625 16.859375 0.140625 Z M 16.859375 -3.0625 C 19.335938 -3.0625 21.351562 -3.9375 22.90625 -5.6875 C 24.457031 -7.4375 25.234375 -9.648438 25.234375 -12.328125 L 25.234375 -39.03125 C 25.234375 -41.65625 24.46875 -43.804688 22.9375 -45.484375 C 21.40625 -47.160156 19.378906 -48 16.859375 -48 L 8.828125 -48 L 8.828125 -3.0625 Z M 16.859375 -3.0625 "/></g></g></g><g fill="#000000" fill-opacity="1"><g transform="translate(180.167515, 74.134449)"><g><path d="M 14 0 C 13.613281 0 13.421875 -0.191406 13.421875 -0.578125 L 13.421875 -16.703125 C 10.503906 -17.097656 8.117188 -18.425781 6.265625 -20.6875 C 4.421875 -22.945312 3.5 -25.707031 3.5 -28.96875 L 3.5 -50.484375 C 3.5 -50.867188 3.71875 -51.0625 4.15625 -51.0625 L 6.34375 -51.0625 C 6.738281 -51.0625 6.9375 -50.867188 6.9375 -50.484375 L 6.9375 -28.96875 C 6.9375 -26.289062 7.710938 -24.078125 9.265625 -22.328125 C 10.816406 -20.578125 12.757812 -19.703125 15.09375 -19.703125 C 17.476562 -19.703125 19.4375 -20.578125 20.96875 -22.328125 C 22.5 -24.078125 23.265625 -26.289062 23.265625 -28.96875 L 23.265625 -50.484375 C 23.265625 -50.867188 23.460938 -51.0625 23.859375 -51.0625 L 26.046875 -51.0625 C 26.484375 -51.0625 26.703125 -50.867188 26.703125 -50.484375 L 26.703125 -28.96875 C 26.703125 -25.75 25.773438 -23 23.921875 -20.71875 C 22.078125 -18.4375 19.695312 -17.097656 16.78125 -16.703125 L 16.78125 -0.578125 C 16.78125 -0.191406 16.585938 0 16.203125 0 Z M 14 0 "/></g></g></g><g clip-path="url(#d86a9057ce)"><path fill="#e60023" d="M 177.914062 48.894531 C 177.914062 49.914062 177.863281 50.929688 177.761719 51.945312 C 177.664062 52.960938 177.515625 53.96875 177.316406 54.96875 C 177.117188 55.96875 176.867188 56.953125 176.574219 57.929688 C 176.277344 58.90625 175.933594 59.863281 175.542969 60.804688 C 175.152344 61.746094 174.71875 62.667969 174.238281 63.566406 C 173.757812 64.464844 173.234375 65.339844 172.667969 66.1875 C 172.101562 67.035156 171.496094 67.851562 170.847656 68.640625 C 170.203125 69.429688 169.519531 70.183594 168.796875 70.902344 C 168.074219 71.625 167.320312 72.308594 166.535156 72.957031 C 165.746094 73.601562 164.925781 74.207031 164.078125 74.773438 C 163.230469 75.339844 162.359375 75.863281 161.460938 76.34375 C 160.5625 76.824219 159.640625 77.261719 158.699219 77.652344 C 157.757812 78.042969 156.796875 78.382812 155.824219 78.679688 C 154.847656 78.976562 153.859375 79.222656 152.859375 79.421875 C 151.859375 79.621094 150.851562 79.769531 149.839844 79.871094 C 148.824219 79.972656 147.808594 80.019531 146.789062 80.019531 C 145.769531 80.019531 144.75 79.972656 143.738281 79.871094 C 142.722656 79.769531 141.714844 79.621094 140.714844 79.421875 C 139.714844 79.222656 138.726562 78.976562 137.753906 78.679688 C 136.777344 78.382812 135.816406 78.042969 134.875 77.652344 C 133.933594 77.261719 133.015625 76.824219 132.113281 76.34375 C 131.214844 75.863281 130.34375 75.339844 129.496094 74.773438 C 128.648438 74.207031 127.828125 73.601562 127.042969 72.957031 C 126.253906 72.308594 125.5 71.625 124.777344 70.902344 C 124.058594 70.183594 123.375 69.429688 122.726562 68.640625 C 122.078125 67.851562 121.472656 67.035156 120.90625 66.1875 C 120.339844 65.339844 119.816406 64.464844 119.335938 63.566406 C 118.855469 62.667969 118.421875 61.746094 118.03125 60.804688 C 117.640625 59.863281 117.296875 58.90625 117 57.929688 C 116.707031 56.953125 116.457031 55.96875 116.257812 54.96875 C 116.0625 53.96875 115.910156 52.960938 115.8125 51.945312 C 115.710938 50.929688 115.660156 49.914062 115.660156 48.894531 C 115.660156 47.875 115.710938 46.859375 115.8125 45.84375 C 115.910156 44.828125 116.0625 43.820312 116.257812 42.824219 C 116.457031 41.824219 116.707031 40.835938 117 39.859375 C 117.296875 38.882812 117.640625 37.925781 118.03125 36.984375 C 118.421875 36.042969 118.855469 35.121094 119.335938 34.222656 C 119.816406 33.324219 120.339844 32.449219 120.90625 31.601562 C 121.472656 30.753906 122.078125 29.9375 122.726562 29.148438 C 123.375 28.359375 124.058594 27.605469 124.777344 26.886719 C 125.5 26.164062 126.253906 25.480469 127.042969 24.835938 C 127.828125 24.1875 128.648438 23.582031 129.496094 23.015625 C 130.34375 22.449219 131.214844 21.925781 132.113281 21.445312 C 133.015625 20.964844 133.933594 20.527344 134.875 20.136719 C 135.816406 19.75 136.777344 19.40625 137.753906 19.109375 C 138.726562 18.8125 139.714844 18.566406 140.714844 18.367188 C 141.714844 18.167969 142.722656 18.019531 143.738281 17.917969 C 144.75 17.820312 145.769531 17.769531 146.789062 17.769531 C 147.808594 17.769531 148.824219 17.820312 149.839844 17.917969 C 150.851562 18.019531 151.859375 18.167969 152.859375 18.367188 C 153.859375 18.566406 154.847656 18.8125 155.824219 19.109375 C 156.796875 19.40625 157.757812 19.75 158.699219 20.136719 C 159.640625 20.527344 160.5625 20.964844 161.460938 21.445312 C 162.359375 21.925781 163.234375 22.449219 164.078125 23.015625 C 164.925781 23.582031 165.746094 24.1875 166.535156 24.835938 C 167.320312 25.480469 168.074219 26.164062 168.796875 26.886719 C 169.519531 27.605469 170.203125 28.359375 170.847656 29.148438 C 171.496094 29.9375 172.101562 30.753906 172.667969 31.601562 C 173.234375 32.449219 173.757812 33.324219 174.238281 34.222656 C 174.71875 35.121094 175.152344 36.042969 175.542969 36.984375 C 175.933594 37.925781 176.277344 38.882812 176.574219 39.859375 C 176.867188 40.835938 177.117188 41.824219 177.316406 42.824219 C 177.515625 43.820312 177.664062 44.828125 177.761719 45.84375 C 177.863281 46.859375 177.914062 47.875 177.914062 48.894531 Z M 177.914062 48.894531 " fill-opacity="1" fill-rule="nonzero"/></g><g fill="#ffffff" fill-opacity="1"><g transform="translate(121.829374, 72.095189)"><g><path d="M 34.15625 -51.75 C 37.5625 -51.75 40.25 -50.578125 42.21875 -48.234375 C 44.1875 -45.898438 45.171875 -42.789062 45.171875 -38.90625 L 45.171875 -0.578125 C 45.171875 -0.191406 44.953125 0 44.515625 0 L 42.328125 0 C 41.941406 0 41.75 -0.191406 41.75 -0.578125 L 41.75 -38.90625 C 41.75 -41.914062 41.09375 -44.269531 39.78125 -45.96875 C 38.46875 -47.675781 36.59375 -48.53125 34.15625 -48.53125 C 31.914062 -48.53125 30.101562 -47.65625 28.71875 -45.90625 C 27.332031 -44.15625 26.640625 -41.820312 26.640625 -38.90625 L 26.640625 -0.578125 C 26.640625 -0.191406 26.445312 0 26.0625 0 L 23.859375 0 C 23.472656 0 23.28125 -0.191406 23.28125 -0.578125 L 23.28125 -38.90625 C 23.28125 -41.820312 22.585938 -44.15625 21.203125 -45.90625 C 19.816406 -47.65625 18.003906 -48.53125 15.765625 -48.53125 C 13.328125 -48.53125 11.453125 -47.675781 10.140625 -45.96875 C 8.828125 -44.269531 8.171875 -41.914062 8.171875 -38.90625 L 8.171875 -0.578125 C 8.171875 -0.191406 7.976562 0 7.59375 0 L 5.40625 0 C 4.96875 0 4.75 -0.191406 4.75 -0.578125 L 4.75 -38.90625 C 4.75 -42.789062 5.734375 -45.898438 7.703125 -48.234375 C 9.671875 -50.578125 12.359375 -51.75 15.765625 -51.75 C 19.847656 -51.75 22.910156 -49.554688 24.953125 -45.171875 C 27.003906 -49.554688 30.070312 -51.75 34.15625 -51.75 Z M 34.15625 -51.75 "/></g></g></g><g clip-path="url(#db2dff76b8)"><path fill="#e60023" d="M 192.613281 18.75 C 191.601562 18.546875 192.035156 18.875 183.585938 11.390625 C 182.933594 10.8125 182.828125 10.597656 183 10.414062 C 183.515625 9.859375 191.316406 17.03125 191.742188 17.417969 C 192.042969 17.691406 192.269531 18.050781 192.519531 18.382812 C 192.574219 18.453125 192.570312 18.570312 192.613281 18.75 Z M 192.613281 18.75 " fill-opacity="1" fill-rule="nonzero"/></g><g clip-path="url(#b12a955de0)"><path fill="#e60023" d="M 199.992188 17.433594 C 199.371094 18.125 199.125 18.375 198.902344 18.296875 C 197.929688 17.945312 204.070312 11.535156 205.089844 10.4375 C 205.507812 9.984375 206.015625 9.609375 206.492188 9.214844 C 206.605469 9.121094 206.765625 9.082031 206.90625 9.019531 C 207.402344 9.433594 204.945312 11.917969 199.992188 17.433594 Z M 199.992188 17.433594 " fill-opacity="1" fill-rule="nonzero"/></g><path fill="#e60023" d="M 191.671875 15.554688 C 191.503906 15.492188 191.320312 15.511719 190.996094 15.050781 C 188.621094 11.691406 188.859375 12.007812 188.652344 11.550781 C 188.519531 11.253906 188.863281 11.007812 189.097656 11.304688 C 189.570312 11.898438 191.148438 14.242188 191.453125 14.695312 C 191.613281 14.933594 191.753906 15.195312 191.671875 15.554688 Z M 191.671875 15.554688 " fill-opacity="1" fill-rule="nonzero"/><g clip-path="url(#a6070d01e5)"><path fill="#e60023" d="M 186.898438 21.207031 C 184.460938 20.878906 184.074219 21.472656 183.957031 20.945312 C 183.867188 20.539062 184.339844 20.480469 184.859375 20.402344 C 186.632812 20.125 188.019531 20.925781 187.285156 21.140625 C 187.144531 21.183594 186.996094 21.191406 186.898438 21.207031 Z M 186.898438 21.207031 " fill-opacity="1" fill-rule="nonzero"/></g><path fill="#e60023" d="M 201.851562 18.300781 C 201.714844 18.367188 201.546875 18.371094 201.371094 18.40625 C 201.339844 18.117188 201.25 18.242188 204.472656 16.019531 C 206.148438 14.863281 205.347656 16.640625 201.851562 18.300781 Z M 201.851562 18.300781 " fill-opacity="1" fill-rule="nonzero"/><path fill="#e60023" d="M 205.234375 19.429688 C 204.601562 19.773438 205.277344 19.558594 202.246094 20.480469 C 201.765625 20.625 201.378906 20.222656 202.011719 20.019531 C 203.960938 19.390625 205.078125 18.910156 205.234375 19.429688 Z M 205.234375 19.429688 " fill-opacity="1" fill-rule="nonzero"/><path fill="#e60023" d="M 189.136719 19.511719 C 188.691406 19.667969 188.6875 19.570312 186.503906 18.460938 C 185.851562 18.132812 186.113281 18.339844 185.855469 18.0625 C 185.933594 18.007812 186.007812 17.921875 186.089844 17.914062 C 186.21875 17.898438 186.371094 17.902344 186.480469 17.960938 C 189.242188 19.335938 188.789062 19.128906 189.136719 19.511719 Z M 189.136719 19.511719 " fill-opacity="1" fill-rule="nonzero"/><path fill="#e60023" d="M 199.339844 13.691406 C 199.484375 13.441406 199.75 13.429688 199.882812 13.523438 C 200.066406 13.648438 199.867188 13.9375 199.15625 15.191406 C 199.078125 15.332031 198.851562 15.394531 198.789062 15.363281 C 198.394531 15.15625 198.921875 14.414062 199.339844 13.691406 Z M 199.339844 13.691406 " fill-opacity="1" fill-rule="nonzero"/></svg>